<svg xmlns="http://www.w3.org/2000/svg" width="24" height="24" viewBox="0 0 24 24" fill="none">
                <path d="M9.90843 3.72301C10.3566 1.42566 13.6435 1.42566 14.0917 3.72301C14.3644 5.12098 15.9054 5.86307 17.1684 5.20467C19.244 4.12271 21.2933 6.6925 19.7766 8.47528C18.8537 9.56012 19.2343 11.2276 20.5365 11.8046C22.6765 12.7527 21.9451 15.9572 19.6056 15.8829C18.182 15.8377 17.1157 17.1749 17.4765 18.5528C18.0695 20.8171 15.1081 22.2432 13.7075 20.3678C12.8552 19.2267 11.1449 19.2267 10.2926 20.3678C8.89204 22.2432 5.93065 20.8171 6.52363 18.5528C6.88447 17.1749 5.81808 15.8377 4.39448 15.8829C2.055 15.9572 1.3236 12.7527 3.46362 11.8046C4.76585 11.2276 5.14643 9.56012 4.2235 8.47528C2.70681 6.6925 4.75615 4.12271 6.83172 5.20467C8.09474 5.86307 9.63571 5.12098 9.90843 3.72301Z" stroke="white" stroke-width="1.8" />
                <path d="M15.0001 12.0016C15.0001 13.6584 13.6569 15.0016 12.0001 15.0016C10.3432 15.0016 9.00007 13.6584 9.00007 12.0016C9.00007 10.3447 10.3432 9.00159 12.0001 9.00159C13.6569 9.00159 15.0001 10.3447 15.0001 12.0016Z" stroke="white" stroke-width="1.8" />
              </svg>