<svg width="1440" height="153" viewBox="0 0 1440 153" fill="none" xmlns="http://www.w3.org/2000/svg">
<g clip-path="url(#clip0_409_7028)">
<rect width="1476.5" height="76.5663" transform="translate(-23.4336 -1.33618) rotate(3)" fill="white" fill-opacity="0.2"/>
<g opacity="0.5">
<path opacity="0.2" d="M-76.4792 43.7326L-75.4681 24.439L-70.6587 24.6911L-65.8408 36.5515L-59.8096 25.2597L-55.0002 25.5117L-56.0113 44.8052L-60.0378 44.5942L-59.3989 32.4029L-64.4357 41.8403L-67.7911 41.6644L-71.8138 31.7523L-72.4528 43.9436L-76.4792 43.7326ZM-51.3337 40.3399L-50.5687 25.7439L-46.5422 25.955L-47.3189 40.7746C-47.3482 41.3339 -47.0833 41.6281 -46.524 41.6574L-41.0435 41.9447C-40.4843 41.974 -40.19 41.709 -40.1607 41.1498L-39.3841 26.3301L-35.3576 26.5411L-36.1225 41.1371C-36.2867 44.2688 -37.9346 45.7526 -41.0663 45.5885L-46.8823 45.2837C-50.014 45.1195 -51.4978 43.4716 -51.3337 40.3399ZM-32.7053 44.5686L-32.591 42.3876L-23.9229 42.8419C-23.3637 42.8712 -23.0694 42.6063 -23.0401 42.047L-22.9346 40.0338C-22.9063 39.4932 -23.1232 39.1734 -23.5853 39.0744L-28.9792 37.6702C-31.1927 37.1056 -32.2325 35.5464 -32.0987 32.9925L-32.0166 31.4267C-31.8525 28.295 -30.2046 26.8112 -27.0729 26.9753L-20.6697 27.3109L-18.8724 28.8631L-18.9867 31.0441L-27.0956 30.6191C-27.6548 30.5898 -27.9491 30.8548 -27.9784 31.414L-28.0737 33.2315C-28.101 33.7535 -27.8841 34.0733 -27.423 34.1909L-22.0276 35.5671C-19.8141 36.1318 -18.7743 37.691 -18.9081 40.2448L-19.0019 42.0344C-19.1661 45.1661 -20.814 46.6498 -23.9457 46.4857L-30.9081 46.1208L-32.7053 44.5686ZM-15.5043 46.9281L-14.4932 27.6346L-1.2953 28.3263L-1.48581 31.9613L-10.6572 31.4806L-10.8624 35.3952L-2.52981 35.8319L-2.72031 39.4669L-11.0529 39.0303L-11.2873 43.5041L-2.11593 43.9848L-2.30643 47.6198L-15.5043 46.9281ZM0.608309 46.3145L0.722611 44.1335L9.39072 44.5878C9.94995 44.6171 10.2442 44.3522 10.2735 43.7929L10.379 41.7797C10.4074 41.2391 10.1905 40.9193 9.72835 40.8203L4.33445 39.4161C2.12097 38.8515 1.08115 37.2923 1.21499 34.7384L1.29705 33.1726C1.46118 30.0409 3.10909 28.5571 6.24079 28.7212L12.644 29.0568L14.4412 30.609L14.3269 32.79L6.21806 32.365C5.65883 32.3357 5.36456 32.6007 5.33525 33.1599L5.24 34.9774C5.21264 35.4994 5.42954 35.8191 5.89068 35.9368L11.286 37.313C13.4995 37.8777 14.5394 39.4369 14.4055 41.9907L14.3117 43.7802C14.1476 46.912 12.4997 48.3957 9.36798 48.2316L2.40554 47.8667L0.608309 46.3145ZM17.8093 48.674L18.8205 29.3805L22.8469 29.5915L22.4469 37.225L29.6696 29.9491L33.4444 30.1469L33.7934 30.9783L27.0165 37.7729L33.5663 48.6867L33.1603 49.4785L29.4414 49.2836L24.2636 40.5447L22.1655 42.5937L21.8358 48.885L17.8093 48.674ZM35.7781 31.0262L36.293 30.2962L39.7323 30.4764L43.4971 38.889L48.1208 30.916L51.56 31.0963L51.9958 31.8762L45.2862 43.2726L44.9286 50.0953L40.9021 49.8843L41.2597 43.0616L35.7781 31.0262Z" fill="white"/>
<path d="M81.7259 53.735L84.6694 45.5381L92.1068 43.0548L84.9697 39.8077L82.8991 31.348L79.9556 39.5449L72.5182 42.0282L79.6553 45.2753L81.7259 53.735Z" fill="#FFAA0C"/>
<path opacity="0.2" d="M113.875 53.7086L114.886 34.4151L119.696 34.6672L124.513 46.5276L130.545 35.2357L135.354 35.4878L134.343 54.7813L130.316 54.5703L130.955 42.379L125.919 51.8163L122.563 51.6405L118.54 41.7284L117.901 53.9196L113.875 53.7086ZM139.021 50.316L139.786 35.72L143.812 35.931L143.035 50.7507C143.006 51.3099 143.271 51.6042 143.83 51.6335L149.311 51.9207C149.87 51.95 150.164 51.6851 150.194 51.1259L150.97 36.3062L154.997 36.5172L154.232 51.1132C154.068 54.2449 152.42 55.7287 149.288 55.5645L143.472 55.2597C140.34 55.0956 138.856 53.4477 139.021 50.316ZM157.649 54.5447L157.763 52.3637L166.431 52.818C166.991 52.8473 167.285 52.5823 167.314 52.0231L167.42 50.0099C167.448 49.4693 167.231 49.1495 166.769 49.0505L161.375 47.6463C159.162 47.0817 158.122 45.5224 158.256 42.9686L158.338 41.4028C158.502 38.2711 160.15 36.7873 163.281 36.9514L169.685 37.287L171.482 38.8392L171.368 41.0202L163.259 40.5952C162.699 40.5659 162.405 40.8308 162.376 41.3901L162.281 43.2076C162.253 43.7295 162.47 44.0493 162.931 44.167L168.327 45.5432C170.54 46.1078 171.58 47.6671 171.446 50.2209L171.352 52.0104C171.188 55.1421 169.54 56.6259 166.409 56.4618L159.446 56.0969L157.649 54.5447ZM174.85 56.9042L175.861 37.6107L189.059 38.3023L188.868 41.9373L179.697 41.4567L179.492 45.3713L187.824 45.808L187.634 49.443L179.301 49.0063L179.067 53.4802L188.238 53.9608L188.048 57.5959L174.85 56.9042ZM190.963 56.2906L191.077 54.1096L199.745 54.5639C200.304 54.5932 200.598 54.3282 200.628 53.769L200.733 51.7558C200.762 51.2152 200.545 50.8954 200.083 50.7964L194.689 49.3922C192.475 48.8276 191.435 47.2683 191.569 44.7145L191.651 43.1487C191.815 40.0169 193.463 38.5332 196.595 38.6973L202.998 39.0329L204.795 40.5851L204.681 42.7661L196.572 42.3411C196.013 42.3118 195.719 42.5767 195.689 43.136L195.594 44.9535C195.567 45.4754 195.784 45.7952 196.245 45.9129L201.64 47.2891C203.854 47.8537 204.894 49.413 204.76 51.9668L204.666 53.7563C204.502 56.888 202.854 58.3718 199.722 58.2077L192.76 57.8428L190.963 56.2906ZM208.164 58.6501L209.175 39.3566L213.201 39.5676L212.801 47.2011L220.024 39.9251L223.799 40.123L224.148 40.9544L217.371 47.749L223.921 58.6628L223.515 59.4546L219.796 59.2597L214.618 50.5207L212.52 52.5697L212.19 58.8611L208.164 58.6501ZM226.132 41.0023L226.647 40.2723L230.087 40.4525L233.851 48.8651L238.475 40.8921L241.914 41.0724L242.35 41.8522L235.64 53.2487L235.283 60.0713L231.256 59.8603L231.614 53.0377L226.132 41.0023Z" fill="white"/>
<path d="M272.08 63.7108L275.024 55.5139L282.461 53.0306L275.324 49.7835L273.253 41.3239L270.31 49.5207L262.872 52.004L270.01 55.2512L272.08 63.7108Z" fill="#FFAA0C"/>
<path opacity="0.2" d="M304.229 63.6847L305.24 44.3912L310.05 44.6432L314.868 56.5036L320.899 45.2118L325.708 45.4639L324.697 64.7574L320.671 64.5464L321.31 52.3551L316.273 61.7924L312.917 61.6166L308.895 51.7044L308.256 63.8957L304.229 63.6847ZM329.375 60.2921L330.14 45.6961L334.166 45.9071L333.39 60.7268C333.36 61.286 333.625 61.5803 334.184 61.6096L339.665 61.8968C340.224 61.9261 340.518 61.6612 340.548 61.1019L341.324 46.2823L345.351 46.4933L344.586 61.0893C344.422 64.221 342.774 65.7047 339.642 65.5406L333.826 65.2358C330.695 65.0717 329.211 63.4238 329.375 60.2921ZM348.003 64.5208L348.117 62.3398L356.786 62.7941C357.345 62.8234 357.639 62.5584 357.668 61.9992L357.774 59.9859C357.802 59.4453 357.585 59.1256 357.123 59.0266L351.729 57.6224C349.516 57.0577 348.476 55.4985 348.61 52.9447L348.692 51.3788C348.856 48.2471 350.504 46.7633 353.636 46.9275L360.039 47.263L361.836 48.8152L361.722 50.9962L353.613 50.5713C353.054 50.542 352.759 50.8069 352.73 51.3662L352.635 53.1837C352.607 53.7056 352.824 54.0254 353.286 54.143L358.681 55.5193C360.894 56.0839 361.934 57.6431 361.8 60.197L361.707 61.9865C361.542 65.1182 359.895 66.602 356.763 66.4379L349.8 66.073L348.003 64.5208ZM365.204 66.8803L366.215 47.5867L379.413 48.2784L379.223 51.9134L370.051 51.4328L369.846 55.3474L378.179 55.7841L377.988 59.4191L369.656 58.9824L369.421 63.4563L378.593 63.9369L378.402 67.5719L365.204 66.8803ZM381.317 66.2667L381.431 64.0857L390.099 64.54C390.658 64.5693 390.953 64.3043 390.982 63.7451L391.088 61.7318C391.116 61.1912 390.899 60.8715 390.437 60.7725L385.043 59.3682C382.829 58.8036 381.79 57.2444 381.923 54.6906L382.006 53.1247C382.17 49.993 383.818 48.5092 386.949 48.6734L393.353 49.0089L395.15 50.5611L395.035 52.7421L386.927 52.3172C386.367 52.2879 386.073 52.5528 386.044 53.112L385.948 54.9296C385.921 55.4515 386.138 55.7713 386.599 55.8889L391.995 57.2652C394.208 57.8298 395.248 59.389 395.114 61.9429L395.02 63.7324C394.856 66.8641 393.208 68.3479 390.076 68.1838L383.114 67.8189L381.317 66.2667ZM398.518 68.6262L399.529 49.3326L403.555 49.5436L403.155 57.1772L410.378 49.9012L414.153 50.099L414.502 50.9304L407.725 57.7251L414.275 68.6388L413.869 69.4307L410.15 69.2358L404.972 60.4968L402.874 62.5458L402.544 68.8372L398.518 68.6262ZM416.487 50.9784L417.001 50.2483L420.441 50.4286L424.206 58.8411L428.829 50.8682L432.269 51.0484L432.704 51.8283L425.995 63.2248L425.637 70.0474L421.611 69.8364L421.968 63.0138L416.487 50.9784Z" fill="white"/>
<path d="M462.434 73.6869L465.378 65.49L472.815 63.0067L465.678 59.7596L463.608 51.2999L460.664 59.4968L453.227 61.9801L460.364 65.2272L462.434 73.6869Z" fill="#FFAA0C"/>
<path opacity="0.2" d="M494.584 73.6605L495.595 54.367L500.404 54.6191L505.222 66.4795L511.253 55.1876L516.063 55.4397L515.051 74.7332L511.025 74.5222L511.664 62.3309L506.627 71.7682L503.272 71.5924L499.249 61.6803L498.61 73.8716L494.584 73.6605ZM519.729 70.2679L520.494 55.6719L524.521 55.8829L523.744 70.7026C523.715 71.2618 523.979 71.5561 524.539 71.5854L530.019 71.8726C530.578 71.9019 530.873 71.637 530.902 71.0778L531.679 56.2581L535.705 56.4691L534.94 71.0651C534.776 74.1968 533.128 75.6806 529.996 75.5164L524.18 75.2116C521.049 75.0475 519.565 73.3996 519.729 70.2679ZM538.357 74.4966L538.472 72.3156L547.14 72.7699C547.699 72.7992 547.993 72.5342 548.023 71.975L548.128 69.9618C548.156 69.4212 547.94 69.1014 547.477 69.0024L542.084 67.5982C539.87 67.0336 538.83 65.4743 538.964 62.9205L539.046 61.3547C539.21 58.223 540.858 56.7392 543.99 56.9033L550.393 57.2389L552.19 58.7911L552.076 60.9721L543.967 60.5471C543.408 60.5178 543.114 60.7828 543.084 61.342L542.989 63.1595C542.962 63.6814 543.179 64.0012 543.64 64.1189L549.035 65.4951C551.249 66.0597 552.288 67.619 552.155 70.1728L552.061 71.9623C551.897 75.094 550.249 76.5778 547.117 76.4137L540.155 76.0488L538.357 74.4966ZM555.558 76.8561L556.57 57.5626L569.767 58.2542L569.577 61.8893L560.406 61.4086L560.2 65.3232L568.533 65.7599L568.342 69.3949L560.01 68.9582L559.775 73.4321L568.947 73.9128L568.756 77.5478L555.558 76.8561ZM571.671 76.2425L571.785 74.0615L580.453 74.5158C581.013 74.5451 581.307 74.2801 581.336 73.7209L581.442 71.7077C581.47 71.1671 581.253 70.8473 580.791 70.7483L575.397 69.3441C573.184 68.7795 572.144 67.2202 572.278 64.6664L572.36 63.1006C572.524 59.9689 574.172 58.4851 577.304 58.6492L583.707 58.9848L585.504 60.537L585.39 62.718L577.281 62.293C576.722 62.2637 576.427 62.5286 576.398 63.0879L576.303 64.9054C576.275 65.4273 576.492 65.7471 576.953 65.8648L582.349 67.241C584.562 67.8056 585.602 69.3649 585.468 71.9187L585.374 73.7082C585.21 76.8399 583.562 78.3237 580.431 78.1596L573.468 77.7947L571.671 76.2425ZM588.872 78.602L589.883 59.3085L593.91 59.5195L593.51 67.153L600.732 59.877L604.507 60.0749L604.856 60.9063L598.079 67.7009L604.629 78.6147L604.223 79.4065L600.504 79.2116L595.326 70.4726L593.228 72.5216L592.899 78.813L588.872 78.602ZM606.841 60.9542L607.356 60.2242L610.795 60.4044L614.56 68.817L619.184 60.844L622.623 61.0243L623.059 61.8041L616.349 73.2006L615.991 80.0232L611.965 79.8122L612.322 72.9896L606.841 60.9542Z" fill="white"/>
<path d="M652.789 83.663L655.732 75.4661L663.169 72.9828L656.032 69.7356L653.962 61.276L651.018 69.4729L643.581 71.9562L650.718 75.2033L652.789 83.663Z" fill="#FFAA0C"/>
<path opacity="0.2" d="M684.938 83.6366L685.949 64.3431L690.758 64.5951L695.576 76.4555L701.607 65.1637L706.417 65.4158L705.406 84.7093L701.379 84.4983L702.018 72.307L696.981 81.7443L693.626 81.5685L689.603 71.6564L688.964 83.8476L684.938 83.6366ZM710.083 80.244L710.848 65.648L714.875 65.859L714.098 80.6787C714.069 81.2379 714.334 81.5322 714.893 81.5615L720.373 81.8487C720.933 81.878 721.227 81.6131 721.256 81.0538L722.033 66.2342L726.059 66.4452L725.294 81.0412C725.13 84.1729 723.482 85.6566 720.351 85.4925L714.535 85.1877C711.403 85.0236 709.919 83.3757 710.083 80.244ZM728.712 84.4727L728.826 82.2917L737.494 82.746C738.053 82.7753 738.348 82.5103 738.377 81.9511L738.482 79.9378C738.511 79.3973 738.294 79.0775 737.832 78.9785L732.438 77.5743C730.224 77.0096 729.184 75.4504 729.318 72.8966L729.4 71.3307C729.565 68.199 731.212 66.7152 734.344 66.8794L740.747 67.2149L742.545 68.7671L742.43 70.9481L734.321 70.5232C733.762 70.4939 733.468 70.7588 733.439 71.3181L733.343 73.1356C733.316 73.6575 733.533 73.9773 733.994 74.0949L739.389 75.4712C741.603 76.0358 742.643 77.595 742.509 80.1489L742.415 81.9384C742.251 85.0701 740.603 86.5539 737.471 86.3898L730.509 86.0249L728.712 84.4727ZM745.913 86.8322L746.924 67.5386L760.122 68.2303L759.931 71.8653L750.76 71.3847L750.555 75.2993L758.887 75.736L758.697 79.371L750.364 78.9343L750.13 83.4082L759.301 83.8888L759.111 87.5238L745.913 86.8322ZM762.025 86.2186L762.14 84.0376L770.808 84.4919C771.367 84.5212 771.661 84.2562 771.691 83.697L771.796 81.6837C771.824 81.1431 771.607 80.8234 771.145 80.7244L765.751 79.3202C763.538 78.7555 762.498 77.1963 762.632 74.6425L762.714 73.0766C762.878 69.9449 764.526 68.4611 767.658 68.6253L774.061 68.9608L775.858 70.513L775.744 72.694L767.635 72.2691C767.076 72.2398 766.782 72.5047 766.752 73.064L766.657 74.8815C766.63 75.4034 766.847 75.7232 767.308 75.8408L772.703 77.2171C774.917 77.7817 775.956 79.3409 775.823 81.8948L775.729 83.6843C775.565 86.816 773.917 88.2998 770.785 88.1357L763.823 87.7708L762.025 86.2186ZM779.226 88.5781L780.237 69.2845L784.264 69.4956L783.864 77.1291L791.087 69.8531L794.861 70.0509L795.21 70.8823L788.433 77.677L794.983 88.5907L794.577 89.3826L790.858 89.1877L785.681 80.4487L783.583 82.4977L783.253 88.7891L779.226 88.5781ZM797.195 70.9303L797.71 70.2002L801.149 70.3805L804.914 78.793L809.538 70.8201L812.977 71.0003L813.413 71.7802L806.703 83.1767L806.346 89.9993L802.319 89.7883L802.677 82.9657L797.195 70.9303Z" fill="white"/>
<path d="M843.143 93.639L846.086 85.4422L853.524 82.9589L846.387 79.7117L844.316 71.2521L841.373 79.4489L833.935 81.9323L841.072 85.1794L843.143 93.639Z" fill="#FFAA0C"/>
<path opacity="0.2" d="M875.292 93.6127L876.303 74.3192L881.113 74.5712L885.93 86.4316L891.962 75.1398L896.771 75.3918L895.76 94.6854L891.733 94.4743L892.372 82.2831L887.336 91.7204L883.98 91.5445L879.957 81.6324L879.318 93.8237L875.292 93.6127ZM900.438 90.22L901.203 75.6241L905.229 75.8351L904.452 90.6548C904.423 91.214 904.688 91.5083 905.247 91.5376L910.728 91.8248C911.287 91.8541 911.581 91.5891 911.611 91.0299L912.387 76.2102L916.414 76.4213L915.649 91.0172C915.485 94.1489 913.837 95.6327 910.705 95.4686L904.889 95.1638C901.757 94.9997 900.273 93.3518 900.438 90.22ZM919.066 94.4488L919.18 92.2678L927.848 92.722C928.408 92.7514 928.702 92.4864 928.731 91.9272L928.837 89.9139C928.865 89.3733 928.648 89.0535 928.186 88.9545L922.792 87.5503C920.579 86.9857 919.539 85.4265 919.673 82.8727L919.755 81.3068C919.919 78.1751 921.567 76.6913 924.698 76.8554L931.102 77.191L932.899 78.7432L932.785 80.9242L924.676 80.4992C924.116 80.4699 923.822 80.7349 923.793 81.2941L923.698 83.1116C923.67 83.6336 923.887 83.9534 924.348 84.071L929.744 85.4473C931.957 86.0119 932.997 87.5711 932.863 90.1249L932.769 91.9145C932.605 95.0462 930.957 96.53 927.826 96.3658L920.863 96.001L919.066 94.4488ZM936.267 96.8082L937.278 77.5147L950.476 78.2064L950.285 81.8414L941.114 81.3607L940.909 85.2754L949.241 85.7121L949.051 89.3471L940.718 88.9104L940.484 93.3842L949.655 93.8649L949.465 97.4999L936.267 96.8082ZM952.38 96.1947L952.494 94.0137L961.162 94.4679C961.721 94.4972 962.015 94.2323 962.045 93.6731L962.15 91.6598C962.179 91.1192 961.962 90.7994 961.5 90.7004L956.106 89.2962C953.892 88.7316 952.852 87.1724 952.986 84.6186L953.068 83.0527C953.232 79.921 954.88 78.4372 958.012 78.6013L964.415 78.9369L966.212 80.4891L966.098 82.6701L957.989 82.2451C957.43 82.2158 957.136 82.4808 957.107 83.04L957.011 84.8575C956.984 85.3795 957.201 85.6993 957.662 85.8169L963.057 87.1932C965.271 87.7578 966.311 89.317 966.177 91.8708L966.083 93.6604C965.919 96.7921 964.271 98.2759 961.139 98.1117L954.177 97.7469L952.38 96.1947ZM969.581 98.5541L970.592 79.2606L974.618 79.4716L974.218 87.1052L981.441 79.8292L985.216 80.027L985.565 80.8584L978.788 87.6531L985.338 98.5668L984.932 99.3586L981.213 99.1637L976.035 90.4248L973.937 92.4738L973.607 98.7652L969.581 98.5541ZM987.549 80.9064L988.064 80.1763L991.504 80.3566L995.268 88.7691L999.892 80.7962L1003.33 80.9764L1003.77 81.7563L997.057 93.1528L996.7 99.9754L992.673 99.7644L993.031 92.9417L987.549 80.9064Z" fill="white"/>
<path d="M1033.5 103.615L1036.44 95.4182L1043.88 92.9349L1036.74 89.6878L1034.67 81.2282L1031.73 89.425L1024.29 91.9083L1031.43 95.1555L1033.5 103.615Z" fill="#FFAA0C"/>
<path opacity="0.2" d="M1065.65 103.589L1066.66 84.2952L1071.47 84.5473L1076.28 96.4077L1082.32 85.1159L1087.13 85.3679L1086.11 104.661L1082.09 104.45L1082.73 92.2591L1077.69 101.696L1074.33 101.521L1070.31 91.6085L1069.67 103.8L1065.65 103.589ZM1090.79 100.196L1091.56 85.6002L1095.58 85.8112L1094.81 100.631C1094.78 101.19 1095.04 101.484 1095.6 101.514L1101.08 101.801C1101.64 101.83 1101.94 101.565 1101.96 101.006L1102.74 86.1863L1106.77 86.3973L1106 100.993C1105.84 104.125 1104.19 105.609 1101.06 105.445L1095.24 105.14C1092.11 104.976 1090.63 103.328 1090.79 100.196ZM1109.42 104.425L1109.53 102.244L1118.2 102.698C1118.76 102.727 1119.06 102.462 1119.09 101.903L1119.19 99.89C1119.22 99.3494 1119 99.0296 1118.54 98.9306L1113.15 97.5264C1110.93 96.9618 1109.89 95.4026 1110.03 92.8487L1110.11 91.2829C1110.27 88.1512 1111.92 86.6674 1115.05 86.8315L1121.46 87.1671L1123.25 88.7193L1123.14 90.9003L1115.03 90.4753C1114.47 90.446 1114.18 90.711 1114.15 91.2702L1114.05 93.0877C1114.02 93.6097 1114.24 93.9295 1114.7 94.0471L1120.1 95.4233C1122.31 95.988 1123.35 97.5472 1123.22 100.101L1123.12 101.891C1122.96 105.022 1121.31 106.506 1118.18 106.342L1111.22 105.977L1109.42 104.425ZM1126.62 106.784L1127.63 87.4908L1140.83 88.1825L1140.64 91.8175L1131.47 91.3368L1131.26 95.2514L1139.6 95.6881L1139.41 99.3232L1131.07 98.8865L1130.84 103.36L1140.01 103.841L1139.82 107.476L1126.62 106.784ZM1142.73 106.171L1142.85 103.99L1151.52 104.444C1152.08 104.473 1152.37 104.208 1152.4 103.649L1152.5 101.636C1152.53 101.095 1152.32 100.776 1151.85 100.677L1146.46 99.2723C1144.25 98.7077 1143.21 97.1485 1143.34 94.5946L1143.42 93.0288C1143.59 89.8971 1145.23 88.4133 1148.37 88.5774L1154.77 88.913L1156.57 90.4652L1156.45 92.6462L1148.34 92.2212C1147.78 92.1919 1147.49 92.4569 1147.46 93.0161L1147.37 94.8336C1147.34 95.3556 1147.56 95.6753 1148.02 95.793L1153.41 97.1692C1155.63 97.7339 1156.66 99.2931 1156.53 101.847L1156.44 103.636C1156.27 106.768 1154.63 108.252 1151.49 108.088L1144.53 107.723L1142.73 106.171ZM1159.93 108.53L1160.95 89.2367L1164.97 89.4477L1164.57 97.0812L1171.8 89.8053L1175.57 90.0031L1175.92 90.8345L1169.14 97.6291L1175.69 108.543L1175.29 109.335L1171.57 109.14L1166.39 100.401L1164.29 102.45L1163.96 108.741L1159.93 108.53ZM1177.9 90.8824L1178.42 90.1524L1181.86 90.3326L1185.62 98.7452L1190.25 90.7722L1193.69 90.9525L1194.12 91.7324L1187.41 103.129L1187.05 109.951L1183.03 109.74L1183.39 102.918L1177.9 90.8824Z" fill="white"/>
<path d="M1223.85 113.591L1226.79 105.394L1234.23 102.911L1227.1 99.6639L1225.02 91.2042L1222.08 99.4011L1214.64 101.884L1221.78 105.132L1223.85 113.591Z" fill="#FFAA0C"/>
<path opacity="0.2" d="M1256 113.565L1257.01 94.2713L1261.82 94.5234L1266.64 106.384L1272.67 95.0919L1277.48 95.344L1276.47 114.638L1272.44 114.426L1273.08 102.235L1268.04 111.673L1264.69 111.497L1260.67 101.585L1260.03 113.776L1256 113.565ZM1281.15 110.172L1281.91 95.5762L1285.94 95.7872L1285.16 110.607C1285.13 111.166 1285.4 111.46 1285.96 111.49L1291.44 111.777C1292 111.806 1292.29 111.541 1292.32 110.982L1293.1 96.1624L1297.12 96.3734L1296.36 110.969C1296.19 114.101 1294.55 115.585 1291.41 115.421L1285.6 115.116C1282.47 114.952 1280.98 113.304 1281.15 110.172ZM1299.77 114.401L1299.89 112.22L1308.56 112.674C1309.12 112.703 1309.41 112.439 1309.44 111.879L1309.55 109.866C1309.57 109.325 1309.36 109.006 1308.89 108.907L1303.5 107.502C1301.29 106.938 1300.25 105.379 1300.38 102.825L1300.46 101.259C1300.63 98.1273 1302.28 96.6435 1305.41 96.8076L1311.81 97.1432L1313.61 98.6954L1313.49 100.876L1305.38 100.451C1304.82 100.422 1304.53 100.687 1304.5 101.246L1304.41 103.064C1304.38 103.586 1304.6 103.906 1305.06 104.023L1310.45 105.399C1312.67 105.964 1313.71 107.523 1313.57 110.077L1313.48 111.867C1313.31 114.998 1311.67 116.482 1308.53 116.318L1301.57 115.953L1299.77 114.401ZM1316.98 116.76L1317.99 97.4669L1331.18 98.1585L1330.99 101.794L1321.82 101.313L1321.62 105.228L1329.95 105.664L1329.76 109.299L1321.43 108.863L1321.19 113.336L1330.36 113.817L1330.17 117.452L1316.98 116.76ZM1333.09 116.147L1333.2 113.966L1341.87 114.42C1342.43 114.449 1342.72 114.184 1342.75 113.625L1342.86 111.612C1342.89 111.071 1342.67 110.752 1342.21 110.653L1336.81 109.248C1334.6 108.684 1333.56 107.125 1333.69 104.571L1333.78 103.005C1333.94 99.8731 1335.59 98.3894 1338.72 98.5535L1345.12 98.8891L1346.92 100.441L1346.81 102.622L1338.7 102.197C1338.14 102.168 1337.84 102.433 1337.82 102.992L1337.72 104.81C1337.69 105.332 1337.91 105.651 1338.37 105.769L1343.77 107.145C1345.98 107.71 1347.02 109.269 1346.89 111.823L1346.79 113.613C1346.63 116.744 1344.98 118.228 1341.85 118.064L1334.89 117.699L1333.09 116.147ZM1350.29 118.506L1351.3 99.2128L1355.33 99.4238L1354.93 107.057L1362.15 99.7813L1365.92 99.9792L1366.27 100.811L1359.5 107.605L1366.05 118.519L1365.64 119.311L1361.92 119.116L1356.74 110.377L1354.65 112.426L1354.32 118.717L1350.29 118.506ZM1368.26 100.859L1368.77 100.128L1372.21 100.309L1375.98 108.721L1380.6 100.748L1384.04 100.929L1384.48 101.708L1377.77 113.105L1377.41 119.928L1373.38 119.717L1373.74 112.894L1368.26 100.859Z" fill="white"/>
<path d="M1414.21 123.567L1417.15 115.37L1424.59 112.887L1417.45 109.64L1415.38 101.18L1412.44 109.377L1405 111.86L1412.14 115.108L1414.21 123.567Z" fill="#FFAA0C"/>
</g>
</g>
<defs>
<clipPath id="clip0_409_7028">
<rect width="1476.5" height="76.5663" fill="white" transform="translate(-23.4336 -1.33618) rotate(3)"/>
</clipPath>
</defs>
</svg>
