   <svg xmlns="http://www.w3.org/2000/svg" width="20" height="20" viewBox="0 0 20 20" fill="none">
            <path fillRule="evenodd" clipRule="evenodd" d="M10.0003 4.08594C8.24675 4.08594 6.76639 5.26404 6.31121 6.87339C6.21987 7.19632 5.92512 7.41927 5.58952 7.41927H5.41699C3.76014 7.41927 2.41699 8.76242 2.41699 10.4193C2.41699 12.0761 3.76014 13.4193 5.41699 13.4193H6.66699C7.08121 13.4193 7.41699 13.7551 7.41699 14.1693C7.41699 14.5835 7.08121 14.9193 6.66699 14.9193H5.41699C2.93171 14.9193 0.916992 12.9046 0.916992 10.4193C0.916992 8.05791 2.7358 6.12136 5.04893 5.93411C5.8363 3.97216 7.75561 2.58594 10.0003 2.58594C12.245 2.58594 14.1643 3.97216 14.9517 5.93411C17.2649 6.12136 19.0837 8.05791 19.0837 10.4193C19.0837 12.9046 17.0689 14.9193 14.5837 14.9193H13.3337C12.9194 14.9193 12.5837 14.5835 12.5837 14.1693C12.5837 13.7551 12.9194 13.4193 13.3337 13.4193H14.5837C16.2405 13.4193 17.5837 12.0761 17.5837 10.4193C17.5837 8.76242 16.2405 7.41927 14.5837 7.41927H14.4111C14.0755 7.41927 13.7808 7.19632 13.6894 6.87339C13.2343 5.26404 11.7539 4.08594 10.0003 4.08594Z" fill="#201C18" />
            <path fillRule="evenodd" clipRule="evenodd" d="M9.46934 7.38764C9.76224 7.09475 10.2371 7.09475 10.53 7.38764L13.4467 10.3043C13.7396 10.5972 13.7396 11.0721 13.4467 11.365C13.1538 11.6579 12.6789 11.6579 12.386 11.365L10.7497 9.72863V16.2513C10.7497 16.6655 10.4139 17.0013 9.99967 17.0013C9.58546 17.0013 9.24967 16.6655 9.24967 16.2513V9.72863L7.61334 11.365C7.32044 11.6579 6.84557 11.6579 6.55268 11.365C6.25978 11.0721 6.25978 10.5972 6.55268 10.3043L9.46934 7.38764Z" fill="#201C18" />
          </svg>