<svg xmlns="http://www.w3.org/2000/svg" width="24" height="24" viewBox="0 0 24 24" fill="none">
                <path d="M15.29 10.292L12.51 13.072C12.3436 13.0277 12.1723 13.0042 12 13.002C11.4696 13.002 10.9609 13.2127 10.5858 13.5877C10.2107 13.9628 10 14.4715 10 15.002C10.0023 15.1742 10.0258 15.3455 10.07 15.512L9.29003 16.292C9.1963 16.3849 9.12191 16.4955 9.07114 16.6174C9.02037 16.7392 8.99423 16.8699 8.99423 17.002C8.99423 17.134 9.02037 17.2647 9.07114 17.3865C9.12191 17.5084 9.1963 17.619 9.29003 17.712C9.38299 17.8057 9.49359 17.8801 9.61545 17.9308C9.73731 17.9816 9.86802 18.0078 10 18.0078C10.132 18.0078 10.2627 17.9816 10.3846 17.9308C10.5065 17.8801 10.6171 17.8057 10.71 17.712L11.49 16.932C11.6565 16.9762 11.8278 16.9997 12 17.002C12.5305 17.002 13.0392 16.7912 13.4142 16.4162C13.7893 16.0411 14 15.5324 14 15.002C13.9978 14.8297 13.9743 14.6584 13.93 14.492L16.71 11.712C16.8983 11.5236 17.0041 11.2683 17.0041 11.002C17.0041 10.7357 16.8983 10.4803 16.71 10.292C16.5217 10.1036 16.2663 9.99786 16 9.99786C15.7337 9.99786 15.4783 10.1036 15.29 10.292ZM12 4.00195C10.6868 4.00195 9.38645 4.26061 8.1732 4.76316C6.95994 5.2657 5.85755 6.0023 4.92896 6.93089C3.0536 8.80625 2.00003 11.3498 2.00003 14.002C1.99511 15.9825 2.58375 17.9191 3.69003 19.562C3.83855 19.7821 4.06844 19.9342 4.32911 19.9848C4.58979 20.0355 4.8599 19.9805 5.08003 19.832C5.30016 19.6834 5.45227 19.4535 5.50291 19.1929C5.55354 18.9322 5.49855 18.6621 5.35003 18.442C4.54455 17.2375 4.08131 15.8369 4.00978 14.3897C3.93826 12.9425 4.26113 11.503 4.94392 10.225C5.62671 8.94697 6.64378 7.87839 7.88653 7.13334C9.12928 6.3883 10.5511 5.99476 12 5.99476C13.449 5.99476 14.8708 6.3883 16.1135 7.13334C17.3563 7.87839 18.3734 8.94697 19.0561 10.225C19.7389 11.503 20.0618 12.9425 19.9903 14.3897C19.9188 15.8369 19.4555 17.2375 18.65 18.442C18.5763 18.5509 18.5248 18.6733 18.4985 18.8022C18.4722 18.9311 18.4716 19.0639 18.4966 19.193C18.5217 19.3221 18.572 19.445 18.6447 19.5546C18.7173 19.6643 18.8109 19.7585 18.92 19.832C19.0856 19.9432 19.2806 20.0024 19.48 20.002C19.6438 20.0022 19.8052 19.9622 19.9499 19.8855C20.0946 19.8088 20.2183 19.6977 20.31 19.562C21.4163 17.9191 22.005 15.9825 22 14.002C22 11.3498 20.9465 8.80625 19.0711 6.93089C17.1957 5.05552 14.6522 4.00195 12 4.00195Z" fill="#E6E6EB" />
              </svg>