<svg width="22" height="21" viewBox="0 0 22 21" fill="none" xmlns="http://www.w3.org/2000/svg">
<path id="Vector" d="M1.3963 5.78587C1.3963 7.50572 1.98401 8.74668 3.14177 9.47537C4.09107 10.074 5.19112 10.1638 5.76352 10.1638C5.9025 10.1638 6.01439 10.1569 6.09212 10.1523C6.09212 10.1523 5.91074 11.308 6.78702 12.45H6.74697C5.22881 12.45 0.277405 12.7596 0.277405 16.7404C0.277405 20.7879 4.82483 20.9939 5.73761 20.9939C5.80945 20.9939 5.85185 20.9916 5.85185 20.9916C5.86128 20.9916 5.92606 20.9939 6.03794 20.9939C6.6233 20.9939 8.13676 20.9226 9.54185 20.2537C11.3651 19.3904 12.2896 17.8835 12.2896 15.7815C12.2896 13.7508 10.881 12.5421 9.85279 11.658C9.22503 11.1181 8.68207 10.653 8.68207 10.2006C8.68207 9.74014 9.07898 9.39363 9.57954 8.95504C10.391 8.24707 11.1566 7.2375 11.1566 5.32886C11.1566 3.65161 10.934 2.52462 9.56187 1.80974C9.70439 1.73837 10.2108 1.68657 10.4605 1.65203C11.2037 1.55303 12.2908 1.44022 12.2908 0.847364V0.733398H6.87417C6.81999 0.735701 1.3963 0.931399 1.3963 5.78587ZM10.1402 16.1613C10.2438 17.7799 8.82694 18.9737 6.69868 19.1245C4.53745 19.2799 2.759 18.329 2.65535 16.7116C2.60471 15.9334 2.95451 15.1736 3.6388 14.567C4.33251 13.9534 5.28534 13.5735 6.32179 13.4987C6.44428 13.4918 6.56559 13.4849 6.6869 13.4849C8.68796 13.486 10.0424 14.6349 10.1402 16.1613ZM8.72565 4.6773C9.25683 6.50535 8.45476 8.41399 7.17568 8.7674C7.02844 8.8075 6.87626 8.82764 6.72342 8.82726C5.5527 8.82726 4.39258 7.66918 3.96151 6.07251C3.72124 5.17921 3.74127 4.39411 4.01687 3.64125C4.28658 2.89875 4.77418 2.40029 5.38663 2.23107C5.53385 2.19078 5.68579 2.17006 5.84008 2.17006C7.25342 2.17006 8.16267 2.74334 8.72565 4.6773ZM17.8982 8.56134V5.10784H15.5427V8.56134H12.0093V10.8637H15.5427V14.3172H17.8982V10.8637H21.4316V8.56134H17.8982Z" fill="#404040"/>
</svg>
