<svg xmlns="http://www.w3.org/2000/svg" width="24" height="24" viewBox="0 0 24 24" fill="none">
                <path d="M4 12.002C4 12.2672 4.10536 12.5215 4.29289 12.7091C4.48043 12.8966 4.73478 13.002 5 13.002H12.59L10.29 15.292C10.1963 15.3849 10.1219 15.4955 10.0711 15.6174C10.0203 15.7392 9.9942 15.8699 9.9942 16.002C9.9942 16.134 10.0203 16.2647 10.0711 16.3865C10.1219 16.5084 10.1963 16.619 10.29 16.712C10.383 16.8057 10.4936 16.8801 10.6154 16.9308C10.7373 16.9816 10.868 17.0078 11 17.0078C11.132 17.0078 11.2627 16.9816 11.3846 16.9308C11.5064 16.8801 11.617 16.8057 11.71 16.712L15.71 12.712C15.801 12.6168 15.8724 12.5047 15.92 12.382C16.02 12.1385 16.02 11.8654 15.92 11.622C15.8724 11.4992 15.801 11.3871 15.71 11.292L11.71 7.29195C11.6168 7.19871 11.5061 7.12475 11.3842 7.07429C11.2624 7.02383 11.1319 6.99786 11 6.99786C10.8681 6.99786 10.7376 7.02383 10.6158 7.07429C10.4939 7.12475 10.3832 7.19871 10.29 7.29195C10.1968 7.38519 10.1228 7.49588 10.0723 7.6177C10.0219 7.73953 9.99591 7.87009 9.99591 8.00195C9.99591 8.13381 10.0219 8.26438 10.0723 8.3862C10.1228 8.50802 10.1968 8.61871 10.29 8.71195L12.59 11.002H5C4.73478 11.002 4.48043 11.1073 4.29289 11.2948C4.10536 11.4824 4 11.7367 4 12.002ZM17 2.00195H7C6.20435 2.00195 5.44129 2.31802 4.87868 2.88063C4.31607 3.44324 4 4.2063 4 5.00195V8.00195C4 8.26717 4.10536 8.52152 4.29289 8.70906C4.48043 8.8966 4.73478 9.00195 5 9.00195C5.26522 9.00195 5.51957 8.8966 5.70711 8.70906C5.89464 8.52152 6 8.26717 6 8.00195V5.00195C6 4.73674 6.10536 4.48238 6.29289 4.29485C6.48043 4.10731 6.73478 4.00195 7 4.00195H17C17.2652 4.00195 17.5196 4.10731 17.7071 4.29485C17.8946 4.48238 18 4.73674 18 5.00195V19.002C18 19.2672 17.8946 19.5215 17.7071 19.7091C17.5196 19.8966 17.2652 20.002 17 20.002H7C6.73478 20.002 6.48043 19.8966 6.29289 19.7091C6.10536 19.5215 6 19.2672 6 19.002V16.002C6 15.7367 5.89464 15.4824 5.70711 15.2948C5.51957 15.1073 5.26522 15.002 5 15.002C4.73478 15.002 4.48043 15.1073 4.29289 15.2948C4.10536 15.4824 4 15.7367 4 16.002V19.002C4 19.7976 4.31607 20.5607 4.87868 21.1233C5.44129 21.6859 6.20435 22.002 7 22.002H17C17.7956 22.002 18.5587 21.6859 19.1213 21.1233C19.6839 20.5607 20 19.7976 20 19.002V5.00195C20 4.2063 19.6839 3.44324 19.1213 2.88063C18.5587 2.31802 17.7956 2.00195 17 2.00195Z" fill="#E6E6EB" />
              </svg>