<svg width="129" height="20" viewBox="0 0 129 20" fill="none" xmlns="http://www.w3.org/2000/svg">
<path opacity="0.2" d="M0.579691 19.9541L0.579691 0.6341L5.39569 0.6341L10.8277 12.2261L16.2597 0.6341H21.0757V19.9541H17.0437V7.7461L12.5077 17.4341H9.14769L4.61169 7.7461V19.9541H0.579691ZM25.5133 15.2501V0.6341H29.5453V15.4741C29.5453 16.0341 29.8253 16.3141 30.3853 16.3141H35.8733C36.4333 16.3141 36.7133 16.0341 36.7133 15.4741V0.6341H40.7453V15.2501C40.7453 18.3861 39.1773 19.9541 36.0413 19.9541H30.2173C27.0813 19.9541 25.5133 18.3861 25.5133 15.2501ZM44.3373 18.4981V16.3141H53.0173C53.5773 16.3141 53.8573 16.0341 53.8573 15.4741V13.4581C53.8573 12.9168 53.624 12.6088 53.1573 12.5341L47.6973 11.4141C45.4573 10.9661 44.3373 9.46343 44.3373 6.9061V5.3381C44.3373 2.2021 45.9053 0.6341 49.0413 0.6341L55.4533 0.6341L57.3293 2.0901V4.2741H49.2093C48.6493 4.2741 48.3693 4.5541 48.3693 5.1141V6.9341C48.3693 7.45677 48.6027 7.76477 49.0693 7.8581L54.5293 8.9501C56.7693 9.3981 57.8893 10.9008 57.8893 13.4581V15.2501C57.8893 18.3861 56.3213 19.9541 53.1853 19.9541H46.2133L44.3373 18.4981ZM61.6383 19.9541V0.6341L74.8543 0.6341V4.2741H65.6703V8.1941H74.0143V11.8341H65.6703V16.3141H74.8543V19.9541H61.6383ZM77.6967 18.4981V16.3141H86.3767C86.9367 16.3141 87.2167 16.0341 87.2167 15.4741V13.4581C87.2167 12.9168 86.9834 12.6088 86.5167 12.5341L81.0567 11.4141C78.8167 10.9661 77.6967 9.46343 77.6967 6.9061V5.3381C77.6967 2.2021 79.2647 0.6341 82.4007 0.6341L88.8127 0.6341L90.6887 2.0901V4.2741H82.5687C82.0087 4.2741 81.7287 4.5541 81.7287 5.1141V6.9341C81.7287 7.45677 81.9621 7.76477 82.4287 7.8581L87.8887 8.9501C90.1287 9.3981 91.2487 10.9008 91.2487 13.4581V15.2501C91.2487 18.3861 89.6807 19.9541 86.5447 19.9541H79.5727L77.6967 18.4981ZM94.9977 19.9541V0.6341H99.0297V8.2781L105.862 0.6341H109.642L110.034 1.4461L103.622 8.5861L110.734 19.1421L110.37 19.9541H106.646L101.018 11.4981L99.0297 13.6541V19.9541H94.9977ZM112.018 1.3901L112.494 0.6341L115.938 0.6341L120.138 8.8381L124.338 0.6341H127.782L128.258 1.3901L122.154 13.1221V19.9541H118.122V13.1221L112.018 1.3901Z" fill="white"/>
</svg>
