<svg xmlns="http://www.w3.org/2000/svg" width="23" height="18" viewBox="0 0 23 18" fill="none">
                <path fill-rule="evenodd" clip-rule="evenodd" d="M2.625 5.87695V15.877H16.375V8.12695H10.125C9.74635 8.12695 9.37792 8.00414 9.075 7.77695L6.54167 5.87695H2.625ZM1.13756 4.38952C1.46575 4.06133 1.91087 3.87695 2.375 3.87695H6.625C7.00365 3.87695 7.37208 3.99976 7.675 4.22695L10.2083 6.12695H16.625C17.0891 6.12695 17.5342 6.31133 17.8624 6.63952C18.1906 6.96771 18.375 7.41283 18.375 7.87695V16.2103C18.375 16.6523 18.1994 17.0762 17.8868 17.3888C17.5743 17.7014 17.1504 17.877 16.7083 17.877H2.375C1.91087 17.877 1.46575 17.6926 1.13756 17.3644C0.809374 17.0362 0.625 16.5911 0.625 16.127V5.62695C0.625 5.16282 0.809375 4.71771 1.13756 4.38952Z" fill="#E6E6EB" />
                <path fill-rule="evenodd" clip-rule="evenodd" d="M6.375 2.12695V4.87695C6.375 5.42924 5.92728 5.87695 5.375 5.87695C4.82272 5.87695 4.375 5.42924 4.375 4.87695V1.87695C4.375 1.41282 4.55938 0.967705 4.88756 0.639516C5.21575 0.311328 5.66087 0.126953 6.125 0.126953H10.375C10.7536 0.126953 11.1221 0.249764 11.425 0.476953L13.9583 2.37695H20.375C20.8391 2.37695 21.2842 2.56133 21.6124 2.88952C21.9406 3.21771 22.125 3.66283 22.125 4.12695V12.4603C22.125 12.9023 21.9494 13.3262 21.6368 13.6388C21.3243 13.9514 20.9004 14.127 20.4583 14.127H17.375C16.8227 14.127 16.375 13.6792 16.375 13.127C16.375 12.5747 16.8227 12.127 17.375 12.127H20.125V4.37695H13.875C13.4964 4.37695 13.1279 4.25414 12.825 4.02695L10.2917 2.12695H6.375Z" fill="#E6E6EB" />
              </svg>