                <svg xmlns="http://www.w3.org/2000/svg" width="24" height="24" viewBox="0 0 24 24" fill="none">
                  <path d="M11.9996 2.00195C10.06 2.00564 8.16344 2.57326 6.54079 3.63569C4.91814 4.69812 3.63946 6.20949 2.8605 7.98572C2.08155 9.76195 1.83594 11.7264 2.15359 13.6397C2.47124 15.553 3.33844 17.3327 4.64956 18.762C5.58598 19.777 6.7225 20.5871 7.9875 21.1412C9.25249 21.6952 10.6185 21.9813 11.9996 21.9813C13.3806 21.9813 14.7466 21.6952 16.0116 21.1412C17.2766 20.5871 18.4131 19.777 19.3496 18.762C20.6607 17.3327 21.5279 15.553 21.8455 13.6397C22.1632 11.7264 21.9176 9.76195 21.1386 7.98572C20.3597 6.20949 19.081 4.69812 17.4583 3.63569C15.8357 2.57326 13.9391 2.00564 11.9996 2.00195ZM11.9996 20.002C9.92803 19.9988 7.93848 19.1922 6.44956 17.752C6.9016 16.6515 7.67059 15.7103 8.65881 15.0478C9.64703 14.3854 10.8099 14.0318 11.9996 14.0318C13.1893 14.0318 14.3521 14.3854 15.3403 15.0478C16.3285 15.7103 17.0975 16.6515 17.5496 17.752C16.0606 19.1922 14.0711 19.9988 11.9996 20.002ZM9.99956 10.002C9.99956 9.60639 10.1169 9.21971 10.3366 8.89081C10.5564 8.56191 10.8687 8.30557 11.2342 8.15419C11.5996 8.00282 12.0018 7.96321 12.3897 8.04038C12.7777 8.11755 13.1341 8.30803 13.4138 8.58774C13.6935 8.86744 13.884 9.22381 13.9611 9.61177C14.0383 9.99973 13.9987 10.4019 13.8473 10.7673C13.6959 11.1328 13.4396 11.4451 13.1107 11.6649C12.7818 11.8847 12.3951 12.002 11.9996 12.002C11.4691 12.002 10.9604 11.7912 10.5853 11.4162C10.2103 11.0411 9.99956 10.5324 9.99956 10.002ZM18.9096 16.002C18.0161 14.4737 16.641 13.285 14.9996 12.622C15.5087 12.0446 15.8405 11.3326 15.955 10.5714C16.0696 9.81017 15.962 9.03207 15.6453 8.33045C15.3286 7.62883 14.8161 7.03351 14.1695 6.61592C13.5228 6.19833 12.7694 5.9762 11.9996 5.9762C11.2298 
10.4763 6.19833 9.82965 6.61592C9.18298 7.03351 8.67053 7.62883 8.35381 8.33045C8.03709 9.03207 7.92955 9.81017 8.04409 10.5714C8.15863 11.3326 8.49039 12.0446 8.99956 12.622C7.35816 13.285 5.98303 14.4737 5.08956 16.002C4.3775 14.7891 4.00128 13.4084 3.99956 12.002C3.99956 9.88022 4.84242 7.84539 6.34271 6.3451C7.843 4.84481 9.87783 4.00195 11.9996 4.00195C14.1213 4.00195 16.1561 4.84481 17.6564 6.3451C19.1567 7.84539 19.9996 9.88022 19.9996 12.002C19.9978 13.4084 19.6216 14.7891 18.9096 16.002Z" fill="white" />
                </svg>