<svg width="241" height="65" viewBox="0 0 241 65" fill="none" xmlns="http://www.w3.org/2000/svg">
<g filter="url(#filter0_b_272_5948)">
<mask id="path-1-inside-1_272_5948" fill="white">
<path fill-rule="evenodd" clip-rule="evenodd" d="M0.789062 13.9737C0.789062 6.53238 6.82144 0.5 14.2627 0.5H227.315C234.757 0.5 240.789 6.53237 240.789 13.9737V16.1574L228.869 28.0779C226.238 30.7088 226.238 34.9743 228.869 37.6052L240.789 49.5257V51.0263C240.789 58.4676 234.757 64.5 227.315 64.5H14.2627C6.82143 64.5 0.789062 58.4676 0.789062 51.0263V49.5247L12.7085 37.6052C15.3394 34.9743 15.3394 30.7088 12.7085 28.0779L0.789062 16.1584V13.9737Z"/>
</mask>
<path fill-rule="evenodd" clip-rule="evenodd" d="M0.789062 13.9737C0.789062 6.53238 6.82144 0.5 14.2627 0.5H227.315C234.757 0.5 240.789 6.53237 240.789 13.9737V16.1574L228.869 28.0779C226.238 30.7088 226.238 34.9743 228.869 37.6052L240.789 49.5257V51.0263C240.789 58.4676 234.757 64.5 227.315 64.5H14.2627C6.82143 64.5 0.789062 58.4676 0.789062 51.0263V49.5247L12.7085 37.6052C15.3394 34.9743 15.3394 30.7088 12.7085 28.0779L0.789062 16.1584V13.9737Z" fill="white" fill-opacity="0.2"/>
<path fill-rule="evenodd" clip-rule="evenodd" d="M0.789062 13.9737C0.789062 6.53238 6.82144 0.5 14.2627 0.5H227.315C234.757 0.5 240.789 6.53237 240.789 13.9737V16.1574L228.869 28.0779C226.238 30.7088 226.238 34.9743 228.869 37.6052L240.789 49.5257V51.0263C240.789 58.4676 234.757 64.5 227.315 64.5H14.2627C6.82143 64.5 0.789062 58.4676 0.789062 51.0263V49.5247L12.7085 37.6052C15.3394 34.9743 15.3394 30.7088 12.7085 28.0779L0.789062 16.1584V13.9737Z" fill="#FFC252"/>
<path fill-rule="evenodd" clip-rule="evenodd" d="M0.789062 13.9737C0.789062 6.53238 6.82144 0.5 14.2627 0.5H227.315C234.757 0.5 240.789 6.53237 240.789 13.9737V16.1574L228.869 28.0779C226.238 30.7088 226.238 34.9743 228.869 37.6052L240.789 49.5257V51.0263C240.789 58.4676 234.757 64.5 227.315 64.5H14.2627C6.82143 64.5 0.789062 58.4676 0.789062 51.0263V49.5247L12.7085 37.6052C15.3394 34.9743 15.3394 30.7088 12.7085 28.0779L0.789062 16.1584V13.9737Z" fill="url(#paint0_linear_272_5948)"/>
<path d="M240.789 16.1574L241.98 17.3483L242.473 16.855V16.1574H240.789ZM228.869 28.0779L230.059 29.2688V29.2688L228.869 28.0779ZM228.869 37.6052L227.678 38.7961V38.7961L228.869 37.6052ZM240.789 49.5257H242.473V48.8281L241.98 48.3348L240.789 49.5257ZM0.789062 49.5247L-0.401854 48.3337L-0.895148 48.827V49.5247H0.789062ZM12.7085 37.6052L13.8994 38.7961L12.7085 37.6052ZM12.7085 28.0779L13.8994 26.887L12.7085 28.0779ZM0.789062 16.1584H-0.895148V16.8561L-0.401854 17.3494L0.789062 16.1584ZM14.2627 -1.18421C5.89127 -1.18421 -0.895148 5.60221 -0.895148 13.9737H2.47327C2.47327 7.46254 7.7516 2.18421 14.2627 2.18421V-1.18421ZM227.315 -1.18421H14.2627V2.18421H227.315V-1.18421ZM242.473 13.9737C242.473 5.60221 235.687 -1.18421 227.315 -1.18421V2.18421C233.827 2.18421 239.105 7.46254 239.105 13.9737H242.473ZM242.473 16.1574V13.9737H239.105V16.1574H242.473ZM230.059 29.2688L241.98 17.3483L239.598 14.9665L227.678 26.887L230.059 29.2688ZM230.059 36.4143C228.086 34.4411 228.086 31.242 230.059 29.2688L227.678 26.887C224.389 30.1756 224.389 35.5075 227.678 38.7961L230.059 36.4143ZM241.98 48.3348L230.059 36.4143L227.678 38.7961L239.598 50.7166L241.98 48.3348ZM242.473 51.0263V49.5257H239.105V51.0263H242.473ZM227.315 66.1842C235.687 66.1842 242.473 59.3978 242.473 51.0263H239.105C239.105 57.5375 233.827 62.8158 227.315 62.8158V66.1842ZM14.2627 66.1842H227.315V62.8158H14.2627V66.1842ZM-0.895148 51.0263C-0.895148 59.3978 5.89126 66.1842 14.2627 66.1842V62.8158C7.75159 62.8158 2.47327 57.5375 2.47327 51.0263H-0.895148ZM-0.895148 49.5247V51.0263H2.47327V49.5247H-0.895148ZM11.5176 36.4143L-0.401854 48.3337L1.97998 50.7156L13.8994 38.7961L11.5176 36.4143ZM11.5176 29.2688C13.4908 31.242 13.4908 34.4411 11.5176 36.4143L13.8994 38.7961C17.188 35.5075 17.1881 30.1756 13.8994 26.887L11.5176 29.2688ZM-0.401854 17.3494L11.5176 29.2688L13.8994 26.887L1.97998 14.9675L-0.401854 17.3494ZM-0.895148 13.9737V16.1584H2.47327V13.9737H-0.895148Z" fill="url(#paint1_linear_272_5948)" mask="url(#path-1-inside-1_272_5948)"/>
</g>
<defs>
<filter id="filter0_b_272_5948" x="-11.8425" y="-12.1316" width="265.263" height="89.2632" filterUnits="userSpaceOnUse" color-interpolation-filters="sRGB">
<feFlood flood-opacity="0" result="BackgroundImageFix"/>
<feGaussianBlur in="BackgroundImageFix" stdDeviation="6.31579"/>
<feComposite in2="SourceAlpha" operator="in" result="effect1_backgroundBlur_272_5948"/>
<feBlend mode="normal" in="SourceGraphic" in2="effect1_backgroundBlur_272_5948" result="shape"/>
</filter>
<linearGradient id="paint0_linear_272_5948" x1="0.789062" y1="32.5" x2="240.789" y2="32.5" gradientUnits="userSpaceOnUse">
<stop stop-color="#FFA600"/>
<stop offset="1" stop-color="#FFC966"/>
</linearGradient>
<linearGradient id="paint1_linear_272_5948" x1="240.789" y1="32.5" x2="0.789063" y2="32.5" gradientUnits="userSpaceOnUse">
<stop stop-color="#FFC252"/>
<stop offset="1" stop-color="#FFC966"/>
</linearGradient>
</defs>
</svg>
