<svg width="26" height="21" viewBox="0 0 26 21" fill="none" xmlns="http://www.w3.org/2000/svg">
<path id="Vector" d="M22.6291 5.85693C22.6455 6.07579 22.6455 6.29341 22.6455 6.51102C22.6455 13.1707 17.542 20.8447 8.21533 20.8447C5.34188 20.8447 2.67243 20.0181 0.426056 18.5823C0.834029 18.6286 1.22689 18.6448 1.65124 18.6448C3.93411 18.6503 6.15235 17.8921 7.94838 16.4925C6.88994 16.4734 5.86391 16.1266 5.01354 15.5004C4.16317 14.8741 3.53092 13.9998 3.20506 12.9994C3.51859 13.0457 3.83339 13.0769 4.16329 13.0769C4.61786 13.0769 5.07494 13.0144 5.49928 12.9056C4.35061 12.6752 3.31772 12.0568 2.57625 11.1555C1.83478 10.2542 1.43049 9.12569 1.43214 7.96177V7.89924C2.10832 8.27319 2.89278 8.50706 3.72384 8.53832C3.02763 8.07882 2.45676 7.45529 2.06215 6.72337C1.66755 5.99145 1.46149 5.17389 1.46236 4.34364C1.46236 3.40815 1.71293 2.55021 2.15239 1.80232C3.42685 3.3594 5.01639 4.63324 6.81806 5.54134C8.61973 6.44943 10.5934 6.97153 12.6111 7.07381C12.533 6.69862 12.4852 6.30966 12.4852 5.91946C12.4849 5.25782 12.6158 4.6026 12.8706 3.99126C13.1254 3.37991 13.499 2.82444 13.97 2.35659C14.441 1.88874 15.0003 1.51768 15.6158 1.26463C16.2313 1.01159 16.891 0.881508 17.5572 0.881837C19.0178 0.881837 20.3362 1.48965 21.2629 2.47266C22.3984 2.25457 23.4873 1.84286 24.4814 1.25578C24.1029 2.41991 23.31 3.40703 22.2514 4.03223C23.2584 3.91814 24.2427 3.6551 25.1714 3.25182C24.4778 4.25622 23.6182 5.13698 22.6291 5.85693Z" fill="#404040"/>
</svg>
