<svg width="29" height="20" viewBox="0 0 29 20" fill="none" xmlns="http://www.w3.org/2000/svg">
<path id="Vector" d="M28.0848 3.10545C27.9235 2.51086 27.6082 1.96862 27.1702 1.53268C26.7323 1.09675 26.1871 0.782328 25.5888 0.620721C23.3705 0.0157187 14.4956 0.00587006 14.4956 0.00587006C14.4956 0.00587006 5.62221 -0.0039791 3.40244 0.574291C2.80454 0.743335 2.26043 1.0622 1.82235 1.50027C1.38426 1.93835 1.06692 2.48092 0.900772 3.07591C0.315727 5.27924 0.310061 9.84912 0.310061 9.84912C0.310061 9.84912 0.304394 14.4415 0.88519 16.6223C1.211 17.8281 2.16719 18.7806 3.38261 19.1057C5.62363 19.7107 14.4744 19.7205 14.4744 19.7205C14.4744 19.7205 23.3492 19.7304 25.5676 19.1535C26.1661 18.9922 26.7118 18.6785 27.1508 18.2434C27.5898 17.8084 27.9069 17.2671 28.0707 16.673C28.6571 14.4711 28.6614 9.90259 28.6614 9.90259C28.6614 9.90259 28.6897 5.30879 28.0848 3.10545ZM11.6568 14.0827L11.6639 5.64084L19.04 9.86882L11.6568 14.0827Z" fill="#404040"/>
</svg>
